<!DOCTYPE svg PUBLIC "-//W3C//DTD SVG 1.1//EN" "http://www.w3.org/Graphics/SVG/1.1/DTD/svg11.dtd">

<!-- Uploaded to: SVG Repo, www.svgrepo.com, Transformed by: SVG Repo Mixer Tools -->
<svg version="1.1" id="_x32_" xmlns="http://www.w3.org/2000/svg" xmlns:xlink="http://www.w3.org/1999/xlink" width="160px" height="160px" viewBox="0 0 512 512" xml:space="preserve" fill="#000000">

<g id="SVGRepo_bgCarrier" stroke-width="0"/>

<g id="SVGRepo_tracerCarrier" stroke-linecap="round" stroke-linejoin="round"/>

<g id="SVGRepo_iconCarrier"> <style type="text/css">  .st0{fill:#d1d5db;}  </style> <g> <path class="st0" d="M450.781,463.988c0,0-5.719-45.484-8.875-52c-2.828-5.797-93.563-50.828-113.031-62.109l-0.594,0.219v-25.844 c7.266-7.719,13.969-17.172,19.453-28.797c1.141-2.469,1.953-5.109,2.719-8c1.156-4.297,2.109-8.984,2.813-12.688 c0.016-0.063,0.016-0.109,0.031-0.156c3.125-0.766,5.969-2.188,8.375-3.938c5.438-3.953,9.375-9.406,12.578-15.109 c3.172-5.719,5.516-11.75,7.094-17.109c1.172-4.078,1.766-7.75,1.781-11.172c0-3.672-0.719-7.125-2.25-10.063 c-1.125-2.188-2.688-4.047-4.375-5.469c-0.203-0.156-0.422-0.281-0.594-0.422l-1.156-46.406c16.219,5.563,38.313,6.75,46.031,4.188 c19.953-6.656,32.594-78.516-77.188-139.094c-135.266-74.578-275.484,2-206.094,96.313l0.813,33.234h-0.297l-1.281,51.766 c-1.641,1.266-3.188,2.844-4.359,4.828c-1.922,3.141-2.875,7-2.859,11.125c0,3.422,0.609,7.094,1.797,11.172 c2.094,7.141,5.531,15.484,10.563,22.688c2.516,3.578,5.438,6.906,9.094,9.531c2.406,1.75,5.25,3.172,8.375,3.938 c0.25,1.266,0.516,2.672,0.813,4.141c0.594,2.813,1.25,5.844,2.031,8.703c0.781,2.891,1.578,5.531,2.719,8 c5.313,11.266,11.797,20.484,18.813,28.078v26.563l-0.594-0.219c-19.469,11.281-110.203,56.313-113.016,62.109 c-3.172,6.516-8.891,52-8.891,52c-1.5,7.484,0.234,15.281,4.813,21.406c4.563,6.125,11.5,10.031,19.109,10.734 c0,0,43.047,15.875,170.859,15.875s170.859-15.875,170.859-15.875c7.609-0.703,14.563-4.609,19.109-10.734 C450.547,479.27,452.281,471.473,450.781,463.988z M97.484,425.191l-6.797-12.641l59.578-31.094l7.766,12.953L97.484,425.191z M177.484,283.363c-0.969-3.641-1.891-8.063-2.531-11.531c-0.328-1.734-0.594-3.219-0.781-4.281 c-0.078-0.531-0.172-0.938-0.203-1.234l-0.063-0.406l-1.234-7.766l-7.766,1.172l-0.703,0.047c-1.078,0-2.297-0.359-3.984-1.563 c-2.531-1.75-5.531-5.484-7.984-9.938c-2.469-4.438-4.484-9.563-5.719-13.828c-0.859-2.984-1.156-5.234-1.156-6.75 c0-1.656,0.313-2.422,0.484-2.797l0.438-0.563c0.266-0.219,0.797-0.516,1.656-0.719c0.813-0.219,1.875-0.313,2.828-0.313 c0.75,0,1.422,0.047,1.859,0.109l0.469,0.063l8.766,1.75c0.172,0.328,0.344,0.609,0.516,0.953c0.016-0.266,0.063-0.547,0.094-0.828 h0.094v-0.891c1.125-10.438,3.359-29.203,4.813-41.172c36.5,15.859,88.938,14.703,88.938,14.703s51.422,3.656,89.031-14.172 c1.438,11.984,3.625,30.344,4.734,40.641v0.906l0.109-0.016c0.031,0.281,0.063,0.563,0.063,0.828 c0.188-0.328,0.359-0.625,0.531-0.953l8.781-1.75l0,0c0.25-0.047,1.203-0.172,2.313-0.172c0.844,0,1.781,0.078,2.547,0.234 c0.594,0.141,1.078,0.313,1.422,0.484c0.531,0.266,0.656,0.422,0.875,0.75c0.188,0.328,0.547,1.047,0.563,2.922 c0,1.516-0.297,3.766-1.156,6.75c-1.641,5.703-4.688,12.875-8.313,18c-1.797,2.563-3.719,4.594-5.375,5.766 c-1.703,1.203-2.922,1.563-4,1.563l-0.703-0.047l-7.766-1.172l-1.234,7.766l-0.031,0.172c-0.141,0.953-0.891,5.5-1.938,10.453 c-0.531,2.484-1.125,5.063-1.734,7.281c-0.594,2.203-1.25,4.125-1.625,4.875c-5.703,12.078-12.703,21.234-20.188,28.328 c-11.203,10.594-23.563,16.516-34.141,19.813c-10.547,3.297-19.375,3.891-22.766,3.875c-2.234,0.016-6.938-0.25-12.906-1.406 c-9-1.719-20.859-5.453-32.5-13.172c-11.656-7.719-23.109-19.344-31.656-37.438C178.844,287.879,178.125,285.77,177.484,283.363z M256,485.098c-5.797,0-10.5-4.703-10.5-10.5c0-5.813,4.703-10.516,10.5-10.516c5.813,0,10.5,4.703,10.5,10.516 C266.5,480.395,261.813,485.098,256,485.098z M256,420.973c-5.797,0-10.5-4.703-10.5-10.5c0-5.813,4.703-10.516,10.5-10.516 c5.813,0,10.5,4.703,10.5,10.516C266.5,416.27,261.813,420.973,256,420.973z M371.938,466.254h-14.094h-5.406v5.391v14.109 l-7.047-6.641l-7.063,6.641v-14.109v-5.391h-5.391h-14.094l6.625-7.063l-6.625-7.047h14.094h5.391v-5.406v-14.094l7.063,6.625 l7.047-6.625v14.094v5.406h5.406h14.094l-6.625,7.047L371.938,466.254z M414.531,425.191l-60.563-30.781l7.781-12.953 l59.594,31.094L414.531,425.191z"/> </g> </g>

</svg>